<?xml version="1.0" encoding="UTF-8"?>
<svg width="20px" height="21px" viewBox="0 0 20 21" version="1.1" xmlns="http://www.w3.org/2000/svg" xmlns:xlink="http://www.w3.org/1999/xlink">
    <!-- Generator: Sketch 59.1 (86144) - https://sketch.com -->
    <title></title>
    <desc>Created with Sketch.</desc>
    <g id="Page-1" stroke="none" stroke-width="1" fill="none" fill-rule="evenodd">
        <g id="Desktop-HD-Copy" transform="translate(-168.000000, -18.000000)" fill="#FFFFFF" fill-rule="nonzero">
            <path d="M187.863281,28.2695312 L178.46875,18.4453125 C178.416666,18.380208 178.351563,18.3313804 178.273437,18.2988281 C178.195312,18.2662759 178.110678,18.25 178.019531,18.25 C177.941406,18.25 177.863282,18.2662759 177.785156,18.2988281 C177.707031,18.3313804 177.635417,18.380208 177.570312,18.4453125 L168.136719,28.2695312 C168.019531,28.3997402 167.964193,28.5494783 167.970703,28.71875 C167.977214,28.8880217 168.039062,29.0377598 168.15625,29.1679688 C168.286459,29.2851568 168.436197,29.3404948 168.605469,29.3339844 C168.77474,29.3274739 168.924479,29.2656256 169.054687,29.1484375 L169.894531,28.2695312 L169.894531,37.625 C169.894531,37.7942717 169.953124,37.9407546 170.070312,38.0644531 C170.187501,38.1881517 170.337239,38.25 170.519531,38.25 L174.875,38.25 C175.044272,38.25 175.190755,38.1881517 175.314453,38.0644531 C175.438152,37.9407546 175.5,37.7942717 175.5,37.625 L175.519531,31.375 L180.5,31.375 L180.5,37.625 C180.5,37.7942717 180.561848,37.9407546 180.685547,38.0644531 C180.809245,38.1881517 180.955728,38.25 181.125,38.25 L185.5,38.25 C185.669272,38.25 185.815755,38.1881517 185.939453,38.0644531 C186.063152,37.9407546 186.125,37.7942717 186.125,37.625 L186.125,28.2695312 L186.964844,29.1484375 C187.016927,29.213542 187.082031,29.2623696 187.160156,29.2949219 C187.238282,29.3274741 187.322916,29.34375 187.414062,29.34375 C187.492188,29.34375 187.567057,29.3274741 187.638672,29.2949219 C187.710287,29.2623696 187.778646,29.2200523 187.84375,29.1679688 C187.960938,29.0377598 188.022786,28.8880217 188.029297,28.71875 C188.035807,28.5494783 187.980469,28.3997402 187.863281,28.2695312 Z M184.875,27.0585938 L184.875,37 L181.75,37 L181.75,30.75 C181.75,30.5807283 181.688152,30.4342454 181.564453,30.3105469 C181.440755,30.1868483 181.294272,30.125 181.125,30.125 L174.894531,30.125 C174.72526,30.125 174.578777,30.1868483 174.455078,30.3105469 C174.33138,30.4342454 174.269531,30.5807283 174.269531,30.75 L174.25,37 L171.144531,37 L171.144531,27.1367188 L171.14209,27.0976562 L171.14209,27.0976562 L171.134766,27.0585938 C171.128255,27.032552 171.125,27.0065105 171.125,26.9804688 L178.019531,19.7929688 L184.894531,26.9804688 C184.88151,27.0065105 184.875,27.032552 184.875,27.0585938 Z" id=""></path>
        </g>
    </g>
</svg>