<?xml version="1.0" encoding="UTF-8"?>
<svg width="52px" height="27px" viewBox="0 0 52 27" version="1.1" xmlns="http://www.w3.org/2000/svg" xmlns:xlink="http://www.w3.org/1999/xlink">
    <!-- Generator: Sketch 59.1 (86144) - https://sketch.com -->
    <title>Group 2</title>
    <desc>Created with Sketch.</desc>
    <g id="Group-2" stroke="none" stroke-width="1" fill="none" fill-rule="evenodd">
        <g transform="translate(0.000000, 2.000269)" fill="#FFFFFF" fill-rule="nonzero">
            <path d="M13.4187618,0.186266529 L3.97566925,6.93133264 C1.72860631,8.5363776 1.20814791,11.659128 2.81319286,13.906191 C3.13389115,14.3551686 3.52669164,14.7479691 3.97566925,15.0686674 L13.4187618,21.8137335 C13.8681744,22.1347425 14.4927245,22.0306508 14.8137335,21.5812382 C15.1347425,21.1318256 15.0306508,20.5072755 14.5812382,20.1862665 L5.13814563,13.4412004 C4.86875907,13.2487814 4.63307877,13.0131011 4.4406598,12.7437146 C3.47763283,11.3954768 3.78990787,9.52182656 5.13814563,8.55879959 L14.5812382,1.81373347 C15.0306508,1.49272448 15.1347425,0.868174393 14.8137335,0.418761806 C14.4927245,-0.0306507803 13.8681744,-0.134742462 13.4187618,0.186266529 Z" id="Path-2"></path>
            <path d="M50.4187618,0.686266529 L40.9756692,7.43133264 C38.7286063,9.0363776 38.2081479,12.159128 39.8131929,14.406191 C40.1338911,14.8551686 40.5266916,15.2479691 40.9756692,15.5686674 L50.4187618,22.3137335 C50.8681744,22.6347425 51.4927245,22.5306508 51.8137335,22.0812382 C52.1347425,21.6318256 52.0306508,21.0072755 51.5812382,20.6862665 L42.1381456,13.9412004 C41.8687591,13.7487814 41.6330788,13.5131011 41.4406598,13.2437146 C40.4776328,11.8954768 40.7899079,10.0218266 42.1381456,9.05879959 L51.5812382,2.31373347 C52.0306508,1.99272448 52.1347425,1.36817439 51.8137335,0.918761806 C51.4927245,0.46934922 50.8681744,0.365257538 50.4187618,0.686266529 Z" id="Path-2-Copy" transform="translate(45.440775, 11.500000) scale(-1, -1) translate(-45.440775, -11.500000) "></path>
        </g>
        <path d="M29.4888609,0.639108896 L20.0674962,24.964772 C19.868033,25.4797797 20.1238323,26.0589727 20.6388399,26.2584359 C21.1538476,26.4578992 21.7330406,26.2020998 21.9325038,25.6870922 L31.3538686,1.36142908 C31.5533318,0.846421432 31.2975325,0.267228368 30.7825248,0.0677651579 C30.2675172,-0.131698052 29.6883241,0.124101253 29.4888609,0.639108896 Z" id="Path-3" fill="#FFFFFF" fill-rule="nonzero"></path>
    </g>
</svg>