<svg id="Layer_1" data-name="Layer 1" xmlns="http://www.w3.org/2000/svg" xmlns:xlink="http://www.w3.org/1999/xlink" viewBox="0 0 63 63"><defs><style>.cls-1{fill:none;}.cls-2{clip-path:url(#clip-path);}.cls-3{clip-path:url(#clip-path-2);}.cls-4{clip-path:url(#clip-path-3);}.cls-5{clip-path:url(#clip-path-4);}.cls-6{clip-path:url(#clip-path-5);}.cls-7{clip-path:url(#clip-path-6);}.cls-8{fill:#fff;}.cls-9{clip-path:url(#clip-path-8);}.cls-10{fill:#333;}</style><clipPath id="clip-path"><circle class="cls-1" cx="198.48" cy="26.79" r="31.5"/></clipPath><clipPath id="clip-path-2"><path class="cls-1" d="M212,42.72H185.4a1.59,1.59,0,0,1-1.11-.42,1.39,1.39,0,0,1-.46-1.08V24.72h4.9a10.8,10.8,0,0,0-.46,3,10.18,10.18,0,0,0,3,7.41,9.89,9.89,0,0,0,7.3,3.09A10,10,0,0,0,206,35.12a10.14,10.14,0,0,0,3-7.41,10.47,10.47,0,0,0-.37-3h4.81v16.5Q213.41,42.72,212,42.72ZM198,35a7.74,7.74,0,0,1-7.71-7.71A7.74,7.74,0,0,1,198,19.57a7.2,7.2,0,0,1,5.4,2.31,7.2,7.2,0,0,1,2.31,5.4A7.74,7.74,0,0,1,198,35Zm13.89-15.43h-4.63A1.36,1.36,0,0,1,205.69,18V13.4a1.36,1.36,0,0,1,1.54-1.54h4.63a1.36,1.36,0,0,1,1.54,1.54V18A1.36,1.36,0,0,1,211.86,19.57Zm-.39,25.71A4.34,4.34,0,0,0,214.66,44,4.23,4.23,0,0,0,216,40.88V13.79a4.48,4.48,0,0,0-4.5-4.5h-27a4.48,4.48,0,0,0-4.5,4.5V40.88A4.23,4.23,0,0,0,181.29,44a4.34,4.34,0,0,0,3.19,1.31Z"/></clipPath><clipPath id="clip-path-3"><circle class="cls-1" cx="31.04" cy="31.96" r="43.85" transform="translate(-11.82 19.8) rotate(-30)"/></clipPath><clipPath id="clip-path-4"><rect class="cls-1" x="-283.66" y="-325.29" width="1425.05" height="752.11"/></clipPath><clipPath id="clip-path-5"><rect class="cls-1" x="0.36" y="0.29" width="62.35" height="62.35"/></clipPath><clipPath id="clip-path-6"><circle class="cls-1" cx="31.53" cy="31.47" r="31.17"/></clipPath><clipPath id="clip-path-8"><path class="cls-1" d="M50.21,51.06a2.11,2.11,0,0,0,2.11-2.11V41.39a2.11,2.11,0,0,0-2.11-2.11,23,23,0,0,1-7.62-1.18,1.75,1.75,0,0,0-1.18-.1,2,2,0,0,0-1,.62l-4.73,4.73a33.76,33.76,0,0,1-14.2-14.2l4.73-4.73a1.71,1.71,0,0,0,.57-1,2.74,2.74,0,0,0-.05-1.18,23,23,0,0,1-1.18-7.62,2.11,2.11,0,0,0-2.11-2.11H15.83a2.11,2.11,0,0,0-2.11,2.11A36.61,36.61,0,0,0,36,48.18,36,36,0,0,0,50.21,51.06Z"/></clipPath></defs><title>call</title><g class="cls-4"><g class="cls-5"><g class="cls-6"><g class="cls-7"><g class="cls-6"><rect class="cls-8" x="-4.59" y="-4.66" width="72.24" height="72.24"/></g></g><g class="cls-9"><g class="cls-6"><rect class="cls-10" x="8.77" y="7.52" width="48.49" height="48.49"/></g></g></g></g></g></svg>