<?xml version="1.0" encoding="UTF-8"?>
<svg width="63px" height="63px" viewBox="0 0 63 63" version="1.1" xmlns="http://www.w3.org/2000/svg" xmlns:xlink="http://www.w3.org/1999/xlink">
    <!-- Generator: Sketch 60.1 (88133) - https://sketch.com -->
    <title>Group 2</title>
    <desc>Created with Sketch.</desc>
    <g id="Page-1" stroke="none" stroke-width="1" fill="none" fill-rule="evenodd">
        <g id="3-copy" transform="translate(-287.000000, -329.000000)">
            <g id="Group-2" transform="translate(287.000000, 329.000000)">
                <circle id="Oval-Copy-3" fill="#FFFFFF" cx="31.5" cy="31.5" r="31.5"></circle>
                <path d="M50.368,51.3 C50.9573333,51.3 51.46,51.092 51.876,50.676 C52.292,50.26 52.5,49.7573333 52.5,49.168 L52.5,49.168 L52.5,41.524 C52.5,40.9346667 52.292,40.432 51.876,40.016 C51.46,39.6 50.9573333,39.392 50.368,39.392 C47.5253333,39.392 44.96,38.9933333 42.672,38.196 C42.2906667,38.0226667 41.892,37.988 41.476,38.092 C41.06,38.196 40.7133333,38.404 40.436,38.716 L40.436,38.716 L35.652,43.5 C32.6013333,41.9053333 29.8453333,39.8773333 27.384,37.416 C24.9226667,34.9546667 22.8946667,32.1986667 21.3,29.148 L21.3,29.148 L26.084,24.364 C26.396,24.0866667 26.5866667,23.74 26.656,23.324 C26.7253333,22.908 26.708,22.5093333 26.604,22.128 C25.8066667,19.84 25.408,17.2746667 25.408,14.432 C25.408,13.8426667 25.2,13.34 24.784,12.924 C24.368,12.508 23.8653333,12.3 23.276,12.3 L23.276,12.3 L15.632,12.3 C15.0426667,12.3 14.54,12.508 14.124,12.924 C13.708,13.34 13.5,13.8426667 13.5,14.432 C13.5,19.424 14.4706667,24.208 16.412,28.784 C18.284,33.1866667 20.9186667,37.0866667 24.316,40.484 C27.7133333,43.8813333 31.6133333,46.516 36.016,48.388 C40.592,50.3293333 45.376,51.3 50.368,51.3 Z" id="юбн" fill="#333333" fill-rule="nonzero"></path>
            </g>
        </g>
    </g>
</svg>