<?xml version="1.0" encoding="UTF-8"?>
<svg width="63px" height="62px" viewBox="0 0 63 62" version="1.1" xmlns="http://www.w3.org/2000/svg" xmlns:xlink="http://www.w3.org/1999/xlink">
    <!-- Generator: Sketch 60.1 (88133) - https://sketch.com -->
    <title></title>
    <desc>Created with Sketch.</desc>
    <g id="Page-1" stroke="none" stroke-width="1" fill="none" fill-rule="evenodd">
        <g id="3-copy" transform="translate(-1106.000000, -330.000000)" fill="#FFFFFF" fill-rule="nonzero">
            <path d="M1128.07812,392 C1129.10938,392 1129.625,391.49256 1129.625,390.477679 L1129.625,390.477679 L1129.625,385.080357 C1128.875,385.264881 1127.84375,385.357143 1126.53125,385.357143 C1124.75,385.357143 1123.22656,384.941964 1121.96094,384.111607 C1120.69531,383.28125 1119.92188,382.612351 1119.64062,382.104911 C1119.35938,381.59747 1119.17188,381.159226 1119.07812,380.790179 C1118.14062,378.391369 1116.96875,376.822917 1115.5625,376.084821 C1113.6875,374.793155 1113.73438,374.147321 1115.70312,374.147321 C1117.76562,374.331845 1119.40625,375.438988 1120.625,377.46875 C1121.9375,379.775298 1123.76562,380.928571 1126.10938,380.928571 C1127.42188,380.928571 1128.64062,380.651786 1129.76562,380.098214 C1130.04688,378.252976 1130.70312,376.822917 1131.73438,375.808036 C1127.42188,375.254464 1123.95312,373.893601 1121.32812,371.725446 C1118.70312,369.557292 1117.39062,365.705357 1117.39062,360.169643 C1117.39062,356.848214 1118.46875,353.988095 1120.625,351.589286 C1119.6875,348.91369 1119.78125,346.099702 1120.90625,343.147321 L1120.90625,343.147321 L1121.60938,343.147321 C1123.76562,343.147321 1126.4375,344.254464 1129.625,346.46875 C1132.34375,345.730655 1134.96875,345.361607 1137.5,345.361607 C1140.03125,345.361607 1142.65625,345.730655 1145.375,346.46875 C1148.5625,344.254464 1151.23438,343.147321 1153.39062,343.147321 L1153.39062,343.147321 L1154.09375,343.147321 C1155.21875,346.099702 1155.3125,348.91369 1154.375,351.589286 C1156.53125,353.988095 1157.60938,356.848214 1157.60938,360.169643 C1157.60938,365.705357 1156.27344,369.557292 1153.60156,371.725446 C1150.92969,373.893601 1147.4375,375.254464 1143.125,375.808036 C1144.625,377.099702 1145.375,379.083333 1145.375,381.758929 C1145.375,383.419643 1145.35156,385.241815 1145.30469,387.225446 C1145.25781,389.209077 1145.23438,390.247024 1145.23438,390.339286 C1145.23438,391.446429 1145.79688,392 1146.92188,392 L1146.92188,392 L1147.48438,392 C1153.76562,389.877976 1158.92188,386.049107 1162.95312,380.513393 C1166.98438,374.977679 1169,368.75 1169,361.830357 C1169,353.065476 1165.92969,345.569196 1159.78906,339.341518 C1153.64844,333.113839 1146.21875,330 1137.5,330 C1128.78125,330 1121.32812,333.136905 1115.14062,339.410714 C1109.04688,345.592262 1106,353.065476 1106,361.830357 C1106,368.842262 1107.99219,375.093006 1111.97656,380.582589 C1115.96094,386.072173 1121.14062,389.877976 1127.51562,392 L1127.51562,392 L1128.07812,392 Z" id=""></path>
        </g>
    </g>
</svg>