<?xml version="1.0" encoding="UTF-8"?>
<svg width="18px" height="19px" viewBox="0 0 18 19" version="1.1" xmlns="http://www.w3.org/2000/svg" xmlns:xlink="http://www.w3.org/1999/xlink">
    <!-- Generator: Sketch 60.1 (88133) - https://sketch.com -->
    <title></title>
    <desc>Created with Sketch.</desc>
    <g id="Page-1" stroke="none" stroke-width="1" fill="none" fill-rule="evenodd">
        <g id="2" transform="translate(-168.000000, -414.000000)" fill="#FFFFFF" fill-rule="nonzero">
            <path d="M176.75,432.25 C179.171875,432.25 181.235677,431.397135 182.941406,429.691406 C184.647135,427.985677 185.5,425.921875 185.5,423.5 C185.5,421.078125 184.647135,419.014323 182.941406,417.308594 C181.235677,415.602865 179.171875,414.75 176.75,414.75 C174.328125,414.75 172.257812,415.609375 170.539062,417.328125 C168.846354,419.020833 168,421.078125 168,423.5 C168,425.270833 168.481771,426.872396 169.445312,428.304688 C170.408854,429.736979 171.671875,430.804688 173.234375,431.507812 C173.182292,430.804688 173.234375,430.140625 173.390625,429.515625 C173.494792,429.046875 173.872396,427.458333 174.523438,424.75 L174.523438,424.75 L174.484375,424.59375 C174.432292,424.463542 174.380208,424.28125 174.328125,424.046875 C174.276042,423.8125 174.25,423.578125 174.25,423.34375 C174.25,422.692708 174.41276,422.152344 174.738281,421.722656 C175.063802,421.292969 175.460938,421.078125 175.929688,421.078125 C176.294271,421.078125 176.580729,421.208333 176.789062,421.46875 C176.997396,421.729167 177.101562,422.041667 177.101562,422.40625 C177.101562,422.640625 177.05599,422.927083 176.964844,423.265625 C176.873698,423.604167 176.75651,423.994792 176.613281,424.4375 C176.470052,424.880208 176.372396,425.231771 176.320312,425.492188 C176.216146,425.960938 176.307292,426.358073 176.59375,426.683594 C176.880208,427.009115 177.257812,427.171875 177.726562,427.171875 C178.533854,427.171875 179.197917,426.722656 179.71875,425.824219 C180.239583,424.925781 180.5,423.825521 180.5,422.523438 C180.5,421.533854 180.174479,420.733073 179.523438,420.121094 C178.872396,419.509115 177.973958,419.203125 176.828125,419.203125 C175.552083,419.203125 174.516927,419.613281 173.722656,420.433594 C172.928385,421.253906 172.53125,422.236979 172.53125,423.382812 C172.53125,424.059896 172.726562,424.632812 173.117188,425.101562 C173.247396,425.257812 173.286458,425.414062 173.234375,425.570312 C173.208333,425.622396 173.175781,425.739583 173.136719,425.921875 C173.097656,426.104167 173.078125,426.221354 173.078125,426.273438 C173,426.533854 172.84375,426.611979 172.609375,426.507812 C171.411458,426.013021 170.8125,424.893229 170.8125,423.148438 C170.8125,421.768229 171.372396,420.511719 172.492188,419.378906 C173.611979,418.246094 175.135417,417.679688 177.0625,417.679688 C178.677083,417.679688 180.005208,418.18099 181.046875,419.183594 C182.088542,420.186198 182.609375,421.364583 182.609375,422.71875 C182.609375,424.463542 182.173177,425.895833 181.300781,427.015625 C180.428385,428.135417 179.289062,428.695312 177.882812,428.695312 C176.867188,428.695312 176.164062,428.330729 175.773438,427.601562 L175.773438,427.601562 L175.148438,430.023438 C175.018229,430.440104 174.71875,431.065104 174.25,431.898438 C175.03125,432.132812 175.864583,432.25 176.75,432.25 Z" id=""></path>
        </g>
    </g>
</svg>