<?xml version="1.0" encoding="UTF-8"?>
<svg width="18px" height="19px" viewBox="0 0 18 19" version="1.1" xmlns="http://www.w3.org/2000/svg" xmlns:xlink="http://www.w3.org/1999/xlink">
    <!-- Generator: Sketch 60.1 (88133) - https://sketch.com -->
    <title></title>
    <desc>Created with Sketch.</desc>
    <g id="Page-1" stroke="none" stroke-width="1" fill="none" fill-rule="evenodd">
        <g id="2" transform="translate(-168.000000, -447.000000)" fill="#FFFFFF" fill-rule="nonzero">
            <path d="M174.132812,465.25 C174.419271,465.25 174.5625,465.106771 174.5625,464.820312 L174.5625,464.820312 L174.5625,463.296875 C174.354167,463.348958 174.067708,463.375 173.703125,463.375 C173.208333,463.375 172.785156,463.257812 172.433594,463.023438 C172.082031,462.789062 171.867188,462.60026 171.789062,462.457031 C171.710938,462.313802 171.658854,462.190104 171.632812,462.085938 C171.372396,461.408854 171.046875,460.966146 170.65625,460.757812 C170.135417,460.393229 170.148438,460.210938 170.695312,460.210938 C171.268229,460.263021 171.723958,460.575521 172.0625,461.148438 C172.427083,461.799479 172.934896,462.125 173.585938,462.125 C173.950521,462.125 174.289062,462.046875 174.601562,461.890625 C174.679688,461.369792 174.861979,460.966146 175.148438,460.679688 C173.950521,460.523438 172.986979,460.139323 172.257812,459.527344 C171.528646,458.915365 171.164062,457.828125 171.164062,456.265625 C171.164062,455.328125 171.463542,454.520833 172.0625,453.84375 C171.802083,453.088542 171.828125,452.294271 172.140625,451.460938 L172.140625,451.460938 L172.335938,451.460938 C172.934896,451.460938 173.677083,451.773438 174.5625,452.398438 C175.317708,452.190104 176.046875,452.085938 176.75,452.085938 C177.453125,452.085938 178.182292,452.190104 178.9375,452.398438 C179.822917,451.773438 180.565104,451.460938 181.164062,451.460938 L181.164062,451.460938 L181.359375,451.460938 C181.671875,452.294271 181.697917,453.088542 181.4375,453.84375 C182.036458,454.520833 182.335938,455.328125 182.335938,456.265625 C182.335938,457.828125 181.964844,458.915365 181.222656,459.527344 C180.480469,460.139323 179.510417,460.523438 178.3125,460.679688 C178.729167,461.044271 178.9375,461.604167 178.9375,462.359375 C178.9375,462.828125 178.93099,463.342448 178.917969,463.902344 C178.904948,464.46224 178.898438,464.755208 178.898438,464.78125 C178.898438,465.09375 179.054688,465.25 179.367188,465.25 L179.367188,465.25 L179.523438,465.25 C181.268229,464.651042 182.700521,463.570312 183.820312,462.007812 C184.940104,460.445312 185.5,458.6875 185.5,456.734375 C185.5,454.260417 184.647135,452.144531 182.941406,450.386719 C181.235677,448.628906 179.171875,447.75 176.75,447.75 C174.328125,447.75 172.257812,448.635417 170.539062,450.40625 C168.846354,452.151042 168,454.260417 168,456.734375 C168,458.713542 168.553385,460.477865 169.660156,462.027344 C170.766927,463.576823 172.205729,464.651042 173.976562,465.25 L173.976562,465.25 L174.132812,465.25 Z" id=""></path>
        </g>
    </g>
</svg>