<?xml version="1.0" encoding="UTF-8"?>
<svg width="15px" height="15px" viewBox="0 0 15 15" version="1.1" xmlns="http://www.w3.org/2000/svg" xmlns:xlink="http://www.w3.org/1999/xlink">
    <!-- Generator: Sketch 60.1 (88133) - https://sketch.com -->
    <title></title>
    <desc>Created with Sketch.</desc>
    <g id="Page-1" stroke="none" stroke-width="1" fill="none" fill-rule="evenodd">
        <g id="2" transform="translate(-169.000000, -383.000000)" fill="#FFFFFF" fill-rule="nonzero">
            <path d="M182.125,398 C182.645833,398 183.088542,397.817708 183.453125,397.453125 C183.817708,397.088542 184,396.658854 184,396.164062 L184,396.164062 L184,384.875 C184,384.354167 183.817708,383.911458 183.453125,383.546875 C183.088542,383.182292 182.645833,383 182.125,383 L182.125,383 L170.875,383 C170.354167,383 169.911458,383.182292 169.546875,383.546875 C169.182292,383.911458 169,384.354167 169,384.875 L169,384.875 L169,396.164062 C169,396.658854 169.182292,397.088542 169.546875,397.453125 C169.911458,397.817708 170.354167,398 170.875,398 L170.875,398 L182.125,398 Z M182.125,387.375 L180.25,387.375 C179.833333,387.375 179.625,387.166667 179.625,386.75 L179.625,386.75 L179.625,384.875 C179.625,384.458333 179.833333,384.25 180.25,384.25 L180.25,384.25 L182.125,384.25 C182.541667,384.25 182.75,384.458333 182.75,384.875 L182.75,384.875 L182.75,386.75 C182.75,387.166667 182.541667,387.375 182.125,387.375 L182.125,387.375 Z M176.5,393.625 C175.640625,393.625 174.904948,393.31901 174.292969,392.707031 C173.68099,392.095052 173.375,391.359375 173.375,390.5 C173.375,389.640625 173.68099,388.904948 174.292969,388.292969 C174.904948,387.68099 175.640625,387.375 176.5,387.375 C177.359375,387.375 178.088542,387.6875 178.6875,388.3125 C179.3125,388.911458 179.625,389.640625 179.625,390.5 C179.625,391.359375 179.31901,392.095052 178.707031,392.707031 C178.095052,393.31901 177.359375,393.625 176.5,393.625 Z M182.164062,396.75 L170.914062,396.75 C170.731771,396.75 170.575521,396.691406 170.445312,396.574219 C170.315104,396.457031 170.25,396.307292 170.25,396.125 L170.25,396.125 L170.25,389.25 L172.320312,389.25 C172.190104,389.692708 172.125,390.109375 172.125,390.5 C172.125,391.697917 172.554688,392.726562 173.414062,393.585938 C174.273438,394.445312 175.302083,394.875 176.5,394.875 C177.723958,394.875 178.765625,394.445312 179.625,393.585938 C180.458333,392.752604 180.875,391.723958 180.875,390.5 C180.875,390.005208 180.822917,389.588542 180.71875,389.25 L180.71875,389.25 L182.75,389.25 L182.75,396.125 C182.75,396.541667 182.554688,396.75 182.164062,396.75 L182.164062,396.75 Z" id=""></path>
        </g>
    </g>
</svg>