<?xml version="1.0" encoding="UTF-8"?>
<svg width="63px" height="63px" viewBox="0 0 63 63" version="1.1" xmlns="http://www.w3.org/2000/svg" xmlns:xlink="http://www.w3.org/1999/xlink">
    <!-- Generator: Sketch 60.1 (88133) - https://sketch.com -->
    <title>Group 3</title>
    <desc>Created with Sketch.</desc>
    <g id="Page-1" stroke="none" stroke-width="1" fill="none" fill-rule="evenodd">
        <g id="3-copy" transform="translate(-571.000000, -331.000000)">
            <g id="Group-3" transform="translate(571.000000, 331.000000)">
                <circle id="Oval-Copy-3" fill="#FFFFFF" cx="31.5" cy="31.5" r="31.5"></circle>
                <path d="M44.5,50 C45.75,50 46.8125,49.5625 47.6875,48.6875 C48.5625,47.8125 49,46.78125 49,45.59375 L49,45.59375 L49,18.5 C49,17.25 48.5625,16.1875 47.6875,15.3125 C46.8125,14.4375 45.75,14 44.5,14 L44.5,14 L17.5,14 C16.25,14 15.1875,14.4375 14.3125,15.3125 C13.4375,16.1875 13,17.25 13,18.5 L13,18.5 L13,45.59375 C13,46.78125 13.4375,47.8125 14.3125,48.6875 C15.1875,49.5625 16.25,50 17.5,50 L17.5,50 L44.5,50 Z M44.8857143,24.2857143 L40.2571429,24.2857143 C39.2285714,24.2857143 38.7142857,23.7714286 38.7142857,22.7428571 L38.7142857,22.7428571 L38.7142857,18.1142857 C38.7142857,17.0857143 39.2285714,16.5714286 40.2571429,16.5714286 L40.2571429,16.5714286 L44.8857143,16.5714286 C45.9142857,16.5714286 46.4285714,17.0857143 46.4285714,18.1142857 L46.4285714,18.1142857 L46.4285714,22.7428571 C46.4285714,23.7714286 45.9142857,24.2857143 44.8857143,24.2857143 L44.8857143,24.2857143 Z M31,39.7142857 C28.8785714,39.7142857 27.0625,38.9589286 25.5517857,37.4482143 C24.0410714,35.9375 23.2857143,34.1214286 23.2857143,32 C23.2857143,29.8785714 24.0410714,28.0625 25.5517857,26.5517857 C27.0625,25.0410714 28.8785714,24.2857143 31,24.2857143 C33.1214286,24.2857143 34.9214286,25.0571429 36.4,26.6 C37.9428571,28.0785714 38.7142857,29.8785714 38.7142857,32 C38.7142857,34.1214286 37.9589286,35.9375 36.4482143,37.4482143 C34.9375,38.9589286 33.1214286,39.7142857 31,39.7142857 Z M45.0424107,47.4285714 L18.428125,47.4285714 C17.996875,47.4285714 17.6272321,47.2879464 17.3191964,47.0066964 C17.0111607,46.7254464 16.8571429,46.3660714 16.8571429,45.9285714 L16.8571429,45.9285714 L16.8571429,29.4285714 L21.7549107,29.4285714 C21.446875,30.4910714 21.2928571,31.4910714 21.2928571,32.4285714 C21.2928571,35.3035714 22.309375,37.7723214 24.3424107,39.8348214 C26.3754464,41.8973214 28.8089286,42.9285714 31.6428571,42.9285714 C34.5383929,42.9285714 37.0026786,41.8973214 39.0357143,39.8348214 C41.0071429,37.8348214 41.9928571,35.3660714 41.9928571,32.4285714 C41.9928571,31.2410714 41.8696429,30.2410714 41.6232143,29.4285714 L41.6232143,29.4285714 L46.4285714,29.4285714 L46.4285714,45.9285714 C46.4285714,46.9285714 45.9665179,47.4285714 45.0424107,47.4285714 L45.0424107,47.4285714 Z" id="ï" fill="#333333" fill-rule="nonzero"></path>
            </g>
        </g>
    </g>
</svg>