<?xml version="1.0" encoding="UTF-8"?>
<svg width="62px" height="63px" viewBox="0 0 62 63" version="1.1" xmlns="http://www.w3.org/2000/svg" xmlns:xlink="http://www.w3.org/1999/xlink">
    <!-- Generator: Sketch 60.1 (88133) - https://sketch.com -->
    <title></title>
    <desc>Created with Sketch.</desc>
    <g id="Page-1" stroke="none" stroke-width="1" fill="none" fill-rule="evenodd">
        <g id="3-copy" transform="translate(-839.000000, -331.000000)" fill="#FFFFFF" fill-rule="nonzero">
            <path d="M870,394 C878.580357,394 885.892113,390.929688 891.935268,384.789062 C897.978423,378.648438 901,371.21875 901,362.5 C901,353.78125 897.978423,346.351562 891.935268,340.210938 C885.892113,334.070312 878.580357,331 870,331 C861.419643,331 854.084821,334.09375 847.995536,340.28125 C841.998512,346.375 839,353.78125 839,362.5 C839,368.875 840.706845,374.640625 844.120536,379.796875 C847.534226,384.953125 852.008929,388.796875 857.544643,391.328125 C857.360119,388.796875 857.544643,386.40625 858.098214,384.15625 C858.467262,382.46875 859.80506,376.75 862.111607,367 L862.111607,367 L861.973214,366.4375 C861.78869,365.96875 861.604167,365.3125 861.419643,364.46875 C861.235119,363.625 861.142857,362.78125 861.142857,361.9375 C861.142857,359.59375 861.719494,357.648438 862.872768,356.101562 C864.026042,354.554688 865.433036,353.78125 867.09375,353.78125 C868.385417,353.78125 869.400298,354.25 870.138393,355.1875 C870.876488,356.125 871.245536,357.25 871.245536,358.5625 C871.245536,359.40625 871.084077,360.4375 870.761161,361.65625 C870.438244,362.875 870.023065,364.28125 869.515625,365.875 C869.008185,367.46875 868.662202,368.734375 868.477679,369.671875 C868.108631,371.359375 868.431548,372.789062 869.446429,373.960938 C870.46131,375.132812 871.799107,375.71875 873.459821,375.71875 C876.31994,375.71875 878.672619,374.101562 880.517857,370.867188 C882.363095,367.632812 883.285714,363.671875 883.285714,358.984375 C883.285714,355.421875 882.13244,352.539062 879.825893,350.335938 C877.519345,348.132812 874.33631,347.03125 870.276786,347.03125 C865.755952,347.03125 862.088542,348.507812 859.274554,351.460938 C856.460565,354.414062 855.053571,357.953125 855.053571,362.078125 C855.053571,364.515625 855.745536,366.578125 857.129464,368.265625 C857.590774,368.828125 857.729167,369.390625 857.544643,369.953125 C857.452381,370.140625 857.337054,370.5625 857.198661,371.21875 C857.060268,371.875 856.991071,372.296875 856.991071,372.484375 C856.714286,373.421875 856.160714,373.703125 855.330357,373.328125 C851.08631,371.546875 848.964286,367.515625 848.964286,361.234375 C848.964286,356.265625 850.947917,351.742188 854.915179,347.664062 C858.88244,343.585938 864.279762,341.546875 871.107143,341.546875 C876.827381,341.546875 881.532738,343.351562 885.223214,346.960938 C888.91369,350.570312 890.758929,354.8125 890.758929,359.6875 C890.758929,365.96875 889.213542,371.125 886.122768,375.15625 C883.031994,379.1875 878.995536,381.203125 874.013393,381.203125 C870.415179,381.203125 867.924107,379.890625 866.540179,377.265625 L866.540179,377.265625 L864.325893,385.984375 C863.864583,387.484375 862.803571,389.734375 861.142857,392.734375 C863.910714,393.578125 866.863095,394 870,394 Z" id=""></path>
        </g>
    </g>
</svg>